<svg viewBox="0 0 720 460" xmlns="http://www.w3.org/2000/svg" font-family="'DM Mono', monospace">
  <rect width="720" height="460" fill="#f5f0e6" rx="4"/>
  <rect width="720" height="32" fill="#ede7d9" rx="4"/>
  <rect y="28" width="720" height="4" fill="#ede7d9"/>
  <line x1="0" y1="32" x2="720" y2="32" stroke="#c8b898" stroke-width="0.5"/>
  <text x="16" y="20" font-size="9" fill="#8b6410" letter-spacing="2">VIEW 02 — THE FLOW</text>
  <text x="460" y="20" font-size="9" fill="#b8a060" letter-spacing="1">BUDGET TIER → GENRE → OUTCOME</text>
  <text x="105" y="52" font-size="8" fill="#7a6040" text-anchor="middle" letter-spacing="2">BUDGET TIER</text>
  <text x="360" y="52" font-size="8" fill="#7a6040" text-anchor="middle" letter-spacing="2">GENRE</text>
  <text x="620" y="52" font-size="8" fill="#7a6040" text-anchor="middle" letter-spacing="2">OUTCOME</text>
  <rect x="40" y="65" width="130" height="40" rx="2" fill="#ede7d9" stroke="#c8b898" stroke-width="1"/><rect x="40" y="65" width="3" height="40" rx="1" fill="#b54a3a"/><text x="52" y="80" font-size="9" fill="#2a1e10">MICRO</text><text x="52" y="92" font-size="7" fill="#7a6040">&lt; $5M · 1,240 films</text><text x="158" y="88" font-size="8" fill="#b8a060">18%</text>
  <rect x="40" y="118" width="130" height="52" rx="2" fill="#ede7d9" stroke="#c8b898" stroke-width="1"/><rect x="40" y="118" width="3" height="52" rx="1" fill="#c9843a" opacity="0.8"/><text x="52" y="134" font-size="9" fill="#2a1e10">LOW</text><text x="52" y="146" font-size="7" fill="#7a6040">$5–20M · 1,680 films</text><text x="158" y="142" font-size="8" fill="#b8a060">24%</text>
  <rect x="40" y="183" width="130" height="62" rx="2" fill="#ede7d9" stroke="#c8b898" stroke-width="1"/><rect x="40" y="183" width="3" height="62" rx="1" fill="#c9843a"/><text x="52" y="199" font-size="9" fill="#2a1e10">MID</text><text x="52" y="211" font-size="7" fill="#7a6040">$20–60M · 2,060 films</text><text x="158" y="207" font-size="8" fill="#b8a060">30%</text>
  <rect x="40" y="258" width="130" height="90" rx="2" fill="#ede7d9" stroke="#c8b898" stroke-width="1"/><rect x="40" y="258" width="3" height="90" rx="1" fill="#8b6410"/><text x="52" y="274" font-size="9" fill="#2a1e10">BLOCKBUSTER</text><text x="52" y="286" font-size="7" fill="#7a6040">&gt; $60M · 1,960 films</text><text x="158" y="282" font-size="8" fill="#b8a060">28%</text>
  <rect x="290" y="65" width="140" height="24" rx="2" fill="#ede7d9" stroke="#c8b898" stroke-width="1"/><rect x="290" y="65" width="3" height="24" rx="1" fill="#c9843a"/><text x="302" y="80" font-size="9" fill="#2a1e10">ACTION</text><text x="400" y="80" font-size="7" fill="#7a6040">1,820</text>
  <rect x="290" y="97" width="140" height="28" rx="2" fill="#ede7d9" stroke="#c8b898" stroke-width="1"/><rect x="290" y="97" width="3" height="28" rx="1" fill="#7a6fbd"/><text x="302" y="114" font-size="9" fill="#2a1e10">DRAMA</text><text x="400" y="114" font-size="7" fill="#7a6040">2,340</text>
  <rect x="290" y="133" width="140" height="24" rx="2" fill="#ede7d9" stroke="#c8b898" stroke-width="1"/><rect x="290" y="133" width="3" height="24" rx="1" fill="#4a9e78"/><text x="302" y="148" font-size="9" fill="#2a1e10">COMEDY</text><text x="400" y="148" font-size="7" fill="#7a6040">1,960</text>
  <rect x="290" y="165" width="140" height="22" rx="2" fill="#fdf5e8" stroke="#8b6410" stroke-width="1.5"/><rect x="290" y="165" width="3" height="22" rx="1" fill="#b54a3a"/><text x="302" y="179" font-size="9" fill="#8b6410">HORROR</text><text x="400" y="179" font-size="7" fill="#8b6410">980</text>
  <rect x="290" y="195" width="140" height="22" rx="2" fill="#ede7d9" stroke="#c8b898" stroke-width="1"/><rect x="290" y="195" width="3" height="22" rx="1" fill="#c9558a"/><text x="302" y="209" font-size="9" fill="#2a1e10">ANIMATION</text><text x="400" y="209" font-size="7" fill="#7a6040">640</text>
  <rect x="290" y="225" width="140" height="22" rx="2" fill="#ede7d9" stroke="#c8b898" stroke-width="1"/><rect x="290" y="225" width="3" height="22" rx="1" fill="#4a8ab5"/><text x="302" y="239" font-size="9" fill="#2a1e10">THRILLER</text><text x="400" y="239" font-size="7" fill="#7a6040">1,200</text>
  <rect x="550" y="65" width="130" height="22" rx="2" fill="#ede7d9" stroke="#b54a3a" stroke-width="1"/><rect x="677" y="65" width="3" height="22" rx="1" fill="#b54a3a"/><text x="562" y="79" font-size="9" fill="#b54a3a">FLOP</text><text x="638" y="79" font-size="7" fill="#b54a3a">ROI &lt; 0.5×</text>
  <rect x="550" y="95" width="130" height="30" rx="2" fill="#ede7d9" stroke="#c8b898" stroke-width="1"/><rect x="677" y="95" width="3" height="30" rx="1" fill="#7a6040"/><text x="562" y="113" font-size="9" fill="#4a3a24">BREAK-EVEN</text><text x="638" y="113" font-size="7" fill="#7a6040">0.5–2×</text>
  <rect x="550" y="133" width="130" height="52" rx="2" fill="#ede7d9" stroke="#c9843a" stroke-width="1"/><rect x="677" y="133" width="3" height="52" rx="1" fill="#c9843a"/><text x="562" y="162" font-size="9" fill="#4a3a24">HIT</text><text x="638" y="162" font-size="7" fill="#7a6040">2–10×</text>
  <rect x="550" y="193" width="130" height="72" rx="2" fill="#fdf5e8" stroke="#8b6410" stroke-width="1.5"/><rect x="677" y="193" width="3" height="72" rx="1" fill="#8b6410"/><text x="562" y="232" font-size="9" fill="#8b6410">MEGAHIT</text><text x="638" y="232" font-size="7" fill="#8b6410">&gt; 10×</text>
  <path d="M170,80 C225,80 240,176 290,176" fill="none" stroke="#b54a3a" stroke-width="9" opacity="0.3"/>
  <path d="M170,140 C228,140 245,176 290,176" fill="none" stroke="#b54a3a" stroke-width="6" opacity="0.25"/>
  <path d="M170,78 C225,78 238,111 290,111" fill="none" stroke="#7a6fbd" stroke-width="5" opacity="0.2"/>
  <path d="M170,138 C228,138 248,111 290,111" fill="none" stroke="#7a6fbd" stroke-width="9" opacity="0.2"/>
  <path d="M170,294 C232,294 255,78 290,78" fill="none" stroke="#c9843a" stroke-width="15" opacity="0.2"/>
  <path d="M170,298 C232,298 258,205 290,205" fill="none" stroke="#c9558a" stroke-width="11" opacity="0.2"/>
  <path d="M430,176 C490,176 512,228 550,228" fill="none" stroke="#b54a3a" stroke-width="9" opacity="0.45"/>
  <path d="M430,176 C490,176 507,158 550,158" fill="none" stroke="#b54a3a" stroke-width="4" opacity="0.35"/>
  <path d="M430,176 C490,176 502,76 550,76" fill="none" stroke="#b54a3a" stroke-width="2" opacity="0.2"/>
  <path d="M430,111 C490,111 502,158 550,158" fill="none" stroke="#7a6fbd" stroke-width="7" opacity="0.18"/>
  <path d="M430,78 C490,78 507,228 550,228" fill="none" stroke="#c9843a" stroke-width="13" opacity="0.18"/>
  <path d="M430,205 C490,205 510,230 550,230" fill="none" stroke="#c9558a" stroke-width="9" opacity="0.2"/>
  <rect x="155" y="320" width="210" height="78" rx="3" fill="#faf6ec" stroke="#8b6410" stroke-width="1"/>
  <rect x="155" y="320" width="210" height="3" fill="#8b6410"/>
  <text x="165" y="336" font-size="8" fill="#1a1410" font-style="italic">Horror — hovered</text>
  <text x="165" y="349" font-size="7" fill="#6b5a40">Most films start Micro or Low budget</text>
  <text x="165" y="360" font-size="7" fill="#6b5a40">71% flow into Hit or Megahit outcome</text>
  <text x="165" y="371" font-size="7" fill="#6b5a40">Median ROI: <tspan fill="#8b6410">6.2×</tspan> vs 2.8× overall</text>
  <text x="165" y="389" font-size="7" fill="#b8a060">click to filter View 01 ↗</text>
  <text x="40" y="448" font-size="7" fill="#b8a060" letter-spacing="1">FLOW WIDTH = NUMBER OF FILMS · HOVER GENRE TO HIGHLIGHT PATHS · CLICK TO FILTER VIEW 01</text>
</svg>
