<svg viewBox="0 0 720 460" xmlns="http://www.w3.org/2000/svg" font-family="'DM Mono', monospace">
  <rect width="720" height="460" fill="#f5f0e6" rx="4"/>
  <rect width="720" height="32" fill="#ede7d9" rx="4"/>
  <rect y="28" width="720" height="4" fill="#ede7d9"/>
  <line x1="0" y1="32" x2="720" y2="32" stroke="#c8b898" stroke-width="0.5"/>
  <text x="16" y="20" font-size="9" fill="#8b6410" letter-spacing="2">VIEW 01 — THE DOSSIER BOARD</text>
  <text x="510" y="20" font-size="9" fill="#b8a060" letter-spacing="1">BUDGET vs REVENUE · LOG SCALE</text>
  <rect x="12" y="38" width="28" height="14" rx="2" fill="#8b6410" opacity="0.15" stroke="#8b6410" stroke-width="0.8"/>
  <text x="26" y="48" font-size="7" fill="#8b6410" text-anchor="middle">ALL</text>
  <rect x="46" y="38" width="38" height="14" rx="2" fill="none" stroke="#c8b898" stroke-width="0.5"/><text x="65" y="48" font-size="7" fill="#6b5a40" text-anchor="middle">ACTION</text>
  <rect x="90" y="38" width="34" height="14" rx="2" fill="none" stroke="#c8b898" stroke-width="0.5"/><text x="107" y="48" font-size="7" fill="#6b5a40" text-anchor="middle">DRAMA</text>
  <rect x="130" y="38" width="38" height="14" rx="2" fill="none" stroke="#c8b898" stroke-width="0.5"/><text x="149" y="48" font-size="7" fill="#6b5a40" text-anchor="middle">HORROR</text>
  <rect x="600" y="38" width="50" height="14" rx="2" fill="#8b6410" opacity="0.15" stroke="#8b6410" stroke-width="0.8"/>
  <text x="625" y="48" font-size="7" fill="#8b6410" text-anchor="middle">REVENUE</text>
  <rect x="656" y="38" width="28" height="14" rx="2" fill="none" stroke="#c8b898" stroke-width="0.5"/>
  <text x="670" y="48" font-size="7" fill="#6b5a40" text-anchor="middle">ROI</text>
  <rect x="60" y="60" width="596" height="340" fill="#f5f0e6"/>
  <line x1="60" y1="60" x2="60" y2="400" stroke="#c8b898" stroke-width="1"/>
  <line x1="60" y1="400" x2="656" y2="400" stroke="#c8b898" stroke-width="1"/>
  <line x1="180" y1="60" x2="180" y2="400" stroke="#ddd0b0" stroke-width="0.5"/>
  <line x1="300" y1="60" x2="300" y2="400" stroke="#ddd0b0" stroke-width="0.5"/>
  <line x1="420" y1="60" x2="420" y2="400" stroke="#ddd0b0" stroke-width="0.5"/>
  <line x1="540" y1="60" x2="540" y2="400" stroke="#ddd0b0" stroke-width="0.5"/>
  <line x1="60" y1="315" x2="656" y2="315" stroke="#ddd0b0" stroke-width="0.5"/>
  <line x1="60" y1="230" x2="656" y2="230" stroke="#ddd0b0" stroke-width="0.5"/>
  <line x1="60" y1="145" x2="656" y2="145" stroke="#ddd0b0" stroke-width="0.5"/>
  <text x="60" y="414" font-size="8" fill="#7a6040" text-anchor="middle">$100K</text>
  <text x="180" y="414" font-size="8" fill="#7a6040" text-anchor="middle">$1M</text>
  <text x="300" y="414" font-size="8" fill="#7a6040" text-anchor="middle">$10M</text>
  <text x="420" y="414" font-size="8" fill="#7a6040" text-anchor="middle">$100M</text>
  <text x="540" y="414" font-size="8" fill="#7a6040" text-anchor="middle">$1B</text>
  <text x="52" y="403" font-size="8" fill="#7a6040" text-anchor="end">$100K</text>
  <text x="52" y="318" font-size="8" fill="#7a6040" text-anchor="end">$10M</text>
  <text x="52" y="233" font-size="8" fill="#7a6040" text-anchor="end">$100M</text>
  <text x="52" y="148" font-size="8" fill="#7a6040" text-anchor="end">$1B</text>
  <text x="358" y="432" font-size="8" fill="#7a6040" text-anchor="middle" letter-spacing="2">PRODUCTION BUDGET</text>
  <text transform="rotate(-90 18 230)" x="18" y="230" font-size="8" fill="#7a6040" text-anchor="middle" letter-spacing="2">BOX OFFICE REVENUE</text>
  <line x1="60" y1="400" x2="656" y2="60" stroke="#c0a870" stroke-width="1.2" stroke-dasharray="6 4"/>
  <text x="570" y="85" font-size="7" fill="#b8a060" letter-spacing="1">BREAK-EVEN</text>
  <text x="100" y="115" font-size="7" fill="#c0a870" letter-spacing="1">MICRO-BUDGET BREAKOUTS</text>
  <text x="480" y="95" font-size="7" fill="#c0a870" letter-spacing="1">BLOCKBUSTERS</text>
  <text x="85" y="368" font-size="7" fill="#c0a870" letter-spacing="1">CULT LOSSES</text>
  <text x="400" y="378" font-size="7" fill="#c0a870" letter-spacing="1">BIG-BUDGET DISAPPOINTMENTS</text>
  <circle cx="85" cy="148" r="4" fill="#b54a3a" opacity="0.8"/>
  <circle cx="233" cy="153" r="6" fill="#b54a3a" opacity="0.85"/>
  <circle cx="208" cy="192" r="5" fill="#7a6fbd" opacity="0.75"/>
  <circle cx="223" cy="198" r="5" fill="#7a6fbd" opacity="0.7"/>
  <circle cx="248" cy="156" r="6" fill="#7a6fbd" opacity="0.85"/>
  <circle cx="240" cy="308" r="6" fill="#7a6fbd" opacity="0.45"/>
  <circle cx="273" cy="141" r="7" fill="#4a9e78" opacity="0.8"/>
  <circle cx="296" cy="142" r="8" fill="#4a9e78" opacity="0.8"/>
  <circle cx="310" cy="131" r="9" fill="#7a6fbd" opacity="0.85"/>
  <circle cx="288" cy="146" r="8" fill="#c9558a" opacity="0.75"/>
  <circle cx="276" cy="145" r="7" fill="#c9558a" opacity="0.75"/>
  <circle cx="336" cy="122" r="10" fill="#c9558a" opacity="0.8"/>
  <circle cx="316" cy="140" r="9" fill="#c9558a" opacity="0.75"/>
  <circle cx="343" cy="129" r="11" fill="#4a8ab5" opacity="0.75"/>
  <circle cx="253" cy="187" r="6" fill="#b54a3a" opacity="0.8"/>
  <circle cx="380" cy="126" r="13" fill="#c9843a" opacity="0.85"/>
  <circle cx="388" cy="120" r="14" fill="#c9843a" opacity="0.9"/>
  <circle cx="374" cy="146" r="13" fill="#c9843a" opacity="0.7"/>
  <circle cx="396" cy="112" r="15" fill="#c9843a" opacity="0.85"/>
  <circle cx="402" cy="109" r="16" fill="#c9843a" opacity="0.9"/>
  <circle cx="396" cy="97" r="15" fill="#7a6fbd" opacity="0.8"/>
  <circle cx="408" cy="89" r="17" fill="#c9843a" opacity="0.9"/>
  <circle cx="380" cy="126" r="13" fill="none" stroke="#8b6410" stroke-width="1.5"/>
  <rect x="400" y="92" width="136" height="90" rx="3" fill="#faf6ec" stroke="#8b6410" stroke-width="1"/>
  <rect x="400" y="92" width="136" height="3" fill="#8b6410"/>
  <text x="408" y="106" font-size="9" fill="#1a1410" font-style="italic">Inception</text>
  <text x="408" y="118" font-size="7" fill="#7a6040">Year</text><text x="448" y="118" font-size="7" fill="#2a1e10">2010</text>
  <text x="408" y="129" font-size="7" fill="#7a6040">Budget</text><text x="452" y="129" font-size="7" fill="#2a1e10">$160M</text>
  <text x="408" y="140" font-size="7" fill="#7a6040">Revenue</text><text x="456" y="140" font-size="7" fill="#2a1e10">$836M</text>
  <text x="408" y="151" font-size="7" fill="#7a6040">ROI</text><text x="430" y="151" font-size="7" fill="#8b6410">5.2×</text>
  <text x="408" y="162" font-size="7" fill="#7a6040">Rating</text><text x="448" y="162" font-size="7" fill="#2a1e10">4.1 / 5</text>
  <text x="408" y="173" font-size="7" fill="#7a6040">Director</text><text x="456" y="173" font-size="7" fill="#2a1e10">C. Nolan</text>
  <circle cx="68" cy="446" r="4" fill="#c9843a" opacity="0.85"/><text x="76" y="449" font-size="7" fill="#6b5a40">Action</text>
  <circle cx="112" cy="446" r="4" fill="#7a6fbd" opacity="0.85"/><text x="120" y="449" font-size="7" fill="#6b5a40">Drama</text>
  <circle cx="156" cy="446" r="4" fill="#4a9e78" opacity="0.85"/><text x="164" y="449" font-size="7" fill="#6b5a40">Comedy</text>
  <circle cx="204" cy="446" r="4" fill="#b54a3a" opacity="0.85"/><text x="212" y="449" font-size="7" fill="#6b5a40">Horror</text>
  <circle cx="252" cy="446" r="4" fill="#c9558a" opacity="0.85"/><text x="260" y="449" font-size="7" fill="#6b5a40">Animation</text>
  <circle cx="308" cy="446" r="4" fill="#4a8ab5" opacity="0.85"/><text x="316" y="449" font-size="7" fill="#6b5a40">Thriller</text>
  <text x="480" y="449" font-size="7" fill="#b8a060">bubble size = budget</text>
</svg>
