<svg viewBox="0 0 720 460" xmlns="http://www.w3.org/2000/svg" font-family="'DM Mono', monospace">
  <rect width="720" height="460" fill="#f5f0e6" rx="4"/>
  <rect width="720" height="32" fill="#ede7d9" rx="4"/>
  <rect y="28" width="720" height="4" fill="#ede7d9"/>
  <line x1="0" y1="32" x2="720" y2="32" stroke="#c8b898" stroke-width="0.5"/>
  <text x="16" y="20" font-size="9" fill="#8b6410" letter-spacing="2">VIEW 03 — THE PROFITABILITY MATRIX</text>
  <text x="420" y="20" font-size="9" fill="#b8a060" letter-spacing="1">GENRE × BUDGET TIER · CELL = MEDIAN ROI</text>

  <!-- decade filter -->
  <text x="16" y="48" font-size="8" fill="#7a6040" letter-spacing="1">DECADE</text>
  <rect x="66" y="38" width="28" height="14" rx="2" fill="#8b6410" opacity="0.15" stroke="#8b6410" stroke-width="0.8"/>
  <text x="80" y="48" font-size="7" fill="#8b6410" text-anchor="middle">ALL</text>
  <rect x="100" y="38" width="36" height="14" rx="2" fill="none" stroke="#c8b898" stroke-width="0.5"/><text x="118" y="48" font-size="7" fill="#6b5a40" text-anchor="middle">1970s</text>
  <rect x="142" y="38" width="36" height="14" rx="2" fill="none" stroke="#c8b898" stroke-width="0.5"/><text x="160" y="48" font-size="7" fill="#6b5a40" text-anchor="middle">1980s</text>
  <rect x="184" y="38" width="36" height="14" rx="2" fill="none" stroke="#c8b898" stroke-width="0.5"/><text x="202" y="48" font-size="7" fill="#6b5a40" text-anchor="middle">1990s</text>
  <rect x="226" y="38" width="36" height="14" rx="2" fill="none" stroke="#c8b898" stroke-width="0.5"/><text x="244" y="48" font-size="7" fill="#6b5a40" text-anchor="middle">2000s</text>
  <rect x="268" y="38" width="36" height="14" rx="2" fill="none" stroke="#c8b898" stroke-width="0.5"/><text x="286" y="48" font-size="7" fill="#6b5a40" text-anchor="middle">2010s</text>
  <text x="490" y="48" font-size="8" fill="#7a6040" letter-spacing="1">METRIC</text>
  <rect x="534" y="38" width="64" height="14" rx="2" fill="#8b6410" opacity="0.15" stroke="#8b6410" stroke-width="0.8"/>
  <text x="566" y="48" font-size="7" fill="#8b6410" text-anchor="middle">MEDIAN ROI</text>
  <rect x="604" y="38" width="72" height="14" rx="2" fill="none" stroke="#c8b898" stroke-width="0.5"/>
  <text x="640" y="48" font-size="7" fill="#6b5a40" text-anchor="middle">% PROFITABLE</text>

  <!-- column headers -->
  <text x="200" y="76" font-size="8" fill="#7a6040" text-anchor="middle" letter-spacing="1">MICRO</text>
  <text x="200" y="86" font-size="7" fill="#b8a060" text-anchor="middle">&lt;$5M</text>
  <text x="305" y="76" font-size="8" fill="#7a6040" text-anchor="middle" letter-spacing="1">LOW</text>
  <text x="305" y="86" font-size="7" fill="#b8a060" text-anchor="middle">$5–20M</text>
  <text x="410" y="76" font-size="8" fill="#7a6040" text-anchor="middle" letter-spacing="1">MID</text>
  <text x="410" y="86" font-size="7" fill="#b8a060" text-anchor="middle">$20–60M</text>
  <text x="515" y="76" font-size="8" fill="#7a6040" text-anchor="middle" letter-spacing="1">BLOCK</text>
  <text x="515" y="86" font-size="7" fill="#b8a060" text-anchor="middle">&gt;$60M</text>

  <!-- Color scale: light parchment → warm amber → deep gold -->
  <!-- HORROR row: 8.4, 6.2, 4.1, 2.8 -->
  <text x="158" y="118" font-size="9" fill="#2a1e10" text-anchor="end">HORROR</text>
  <rect x="162" y="97" width="92" height="34" rx="2" fill="#8b6410" opacity="0.9"/>
  <text x="208" y="118" font-size="14" fill="#faf6ec" text-anchor="middle">8.4×</text>
  <rect x="262" y="97" width="92" height="34" rx="2" fill="#8b6410" opacity="0.72"/>
  <text x="308" y="118" font-size="14" fill="#faf6ec" text-anchor="middle">6.2×</text>
  <rect x="362" y="97" width="92" height="34" rx="2" fill="#c9843a" opacity="0.6"/>
  <text x="408" y="118" font-size="14" fill="#faf6ec" text-anchor="middle">4.1×</text>
  <rect x="462" y="97" width="92" height="34" rx="2" fill="#c9843a" opacity="0.35"/>
  <text x="508" y="118" font-size="14" fill="#6b5a40" text-anchor="middle">2.8×</text>

  <!-- ANIMATION row: 2.1, 4.8, 7.2, 8.1 -->
  <text x="158" y="160" font-size="9" fill="#2a1e10" text-anchor="end">ANIMATION</text>
  <rect x="162" y="139" width="92" height="34" rx="2" fill="#c9843a" opacity="0.2"/>
  <text x="208" y="160" font-size="14" fill="#7a6040" text-anchor="middle">2.1×</text>
  <rect x="262" y="139" width="92" height="34" rx="2" fill="#c9843a" opacity="0.5"/>
  <text x="308" y="160" font-size="14" fill="#faf6ec" text-anchor="middle">4.8×</text>
  <rect x="362" y="139" width="92" height="34" rx="2" fill="#8b6410" opacity="0.8"/>
  <text x="408" y="160" font-size="14" fill="#faf6ec" text-anchor="middle">7.2×</text>
  <rect x="462" y="139" width="92" height="34" rx="2" fill="#8b6410" opacity="0.88"/>
  <text x="508" y="160" font-size="14" fill="#faf6ec" text-anchor="middle">8.1×</text>

  <!-- DRAMA row: 3.2, 4.1, 3.8, 2.9 -->
  <text x="158" y="202" font-size="9" fill="#2a1e10" text-anchor="end">DRAMA</text>
  <rect x="162" y="181" width="92" height="34" rx="2" fill="#c9843a" opacity="0.3"/>
  <text x="208" y="202" font-size="14" fill="#7a6040" text-anchor="middle">3.2×</text>
  <rect x="262" y="181" width="92" height="34" rx="2" fill="#c9843a" opacity="0.5"/>
  <text x="308" y="202" font-size="14" fill="#faf6ec" text-anchor="middle">4.1×</text>
  <rect x="362" y="181" width="92" height="34" rx="2" fill="#c9843a" opacity="0.45"/>
  <text x="408" y="202" font-size="14" fill="#faf6ec" text-anchor="middle">3.8×</text>
  <rect x="462" y="181" width="92" height="34" rx="2" fill="#c9843a" opacity="0.28"/>
  <text x="508" y="202" font-size="14" fill="#7a6040" text-anchor="middle">2.9×</text>

  <!-- COMEDY row: 2.8, 3.5, 3.0, 2.4 -->
  <text x="158" y="244" font-size="9" fill="#2a1e10" text-anchor="end">COMEDY</text>
  <rect x="162" y="223" width="92" height="34" rx="2" fill="#c9843a" opacity="0.25"/>
  <text x="208" y="244" font-size="14" fill="#7a6040" text-anchor="middle">2.8×</text>
  <rect x="262" y="223" width="92" height="34" rx="2" fill="#c9843a" opacity="0.38"/>
  <text x="308" y="244" font-size="14" fill="#7a6040" text-anchor="middle">3.5×</text>
  <rect x="362" y="223" width="92" height="34" rx="2" fill="#c9843a" opacity="0.28"/>
  <text x="408" y="244" font-size="14" fill="#7a6040" text-anchor="middle">3.0×</text>
  <rect x="462" y="223" width="92" height="34" rx="2" fill="#c9843a" opacity="0.18"/>
  <text x="508" y="244" font-size="14" fill="#7a6040" text-anchor="middle">2.4×</text>

  <!-- ACTION row: 1.8, 2.4, 3.1, 4.2 -->
  <text x="158" y="286" font-size="9" fill="#2a1e10" text-anchor="end">ACTION</text>
  <rect x="162" y="265" width="92" height="34" rx="2" fill="#c9843a" opacity="0.12"/>
  <text x="208" y="286" font-size="14" fill="#b8a060" text-anchor="middle">1.8×</text>
  <rect x="262" y="265" width="92" height="34" rx="2" fill="#c9843a" opacity="0.2"/>
  <text x="308" y="286" font-size="14" fill="#7a6040" text-anchor="middle">2.4×</text>
  <rect x="362" y="265" width="92" height="34" rx="2" fill="#c9843a" opacity="0.3"/>
  <text x="408" y="286" font-size="14" fill="#7a6040" text-anchor="middle">3.1×</text>
  <rect x="462" y="265" width="92" height="34" rx="2" fill="#c9843a" opacity="0.5"/>
  <text x="508" y="286" font-size="14" fill="#faf6ec" text-anchor="middle">4.2×</text>

  <!-- THRILLER row: 2.2, 3.0, 3.5, 3.2 -->
  <text x="158" y="328" font-size="9" fill="#2a1e10" text-anchor="end">THRILLER</text>
  <rect x="162" y="307" width="92" height="34" rx="2" fill="#c9843a" opacity="0.16"/>
  <text x="208" y="328" font-size="14" fill="#b8a060" text-anchor="middle">2.2×</text>
  <rect x="262" y="307" width="92" height="34" rx="2" fill="#c9843a" opacity="0.28"/>
  <text x="308" y="328" font-size="14" fill="#7a6040" text-anchor="middle">3.0×</text>
  <rect x="362" y="307" width="92" height="34" rx="2" fill="#c9843a" opacity="0.38"/>
  <text x="408" y="328" font-size="14" fill="#7a6040" text-anchor="middle">3.5×</text>
  <rect x="462" y="307" width="92" height="34" rx="2" fill="#c9843a" opacity="0.3"/>
  <text x="508" y="328" font-size="14" fill="#7a6040" text-anchor="middle">3.2×</text>

  <!-- clicked cell highlight: Horror Micro -->
  <rect x="162" y="97" width="92" height="34" rx="2" fill="none" stroke="#8b6410" stroke-width="2.5"/>

  <!-- drill-down panel -->
  <rect x="590" y="92" width="116" height="262" rx="3" fill="#faf6ec" stroke="#8b6410" stroke-width="1"/>
  <rect x="590" y="92" width="116" height="3" fill="#8b6410"/>
  <text x="648" y="107" font-size="7" fill="#1a1410" text-anchor="middle">Horror · Micro</text>
  <text x="648" y="118" font-size="7" fill="#7a6040" text-anchor="middle">n = 142 films</text>
  <!-- violin shape -->
  <path d="M622,132 C616,148 614,168 622,184 C629,197 634,204 648,206 C662,204 667,197 674,184 C682,168 680,148 674,132 C667,122 662,120 648,120 C634,120 629,122 622,132Z" fill="#c9843a" opacity="0.2"/>
  <path d="M630,148 C626,158 625,170 630,180 C634,188 640,192 648,193 C656,192 662,188 666,180 C671,170 670,158 666,148 C662,140 656,138 648,138 C640,138 634,140 630,148Z" fill="#c9843a" opacity="0.45"/>
  <line x1="600" y1="212" x2="698" y2="212" stroke="#c8b898" stroke-width="0.5"/>
  <text x="648" y="224" font-size="7" fill="#7a6040" text-anchor="middle">ROI distribution</text>
  <text x="648" y="244" font-size="13" fill="#8b6410" text-anchor="middle">8.4×</text>
  <text x="648" y="255" font-size="6" fill="#7a6040" text-anchor="middle">median ROI</text>
  <line x1="600" y1="262" x2="698" y2="262" stroke="#c8b898" stroke-width="0.5"/>
  <text x="648" y="274" font-size="7" fill="#7a6040" text-anchor="middle">vs dataset avg</text>
  <text x="648" y="290" font-size="11" fill="#4a9e78" text-anchor="middle">+196%</text>
  <text x="648" y="302" font-size="6" fill="#7a6040" text-anchor="middle">above average</text>
  <line x1="600" y1="308" x2="698" y2="308" stroke="#c8b898" stroke-width="0.5"/>
  <text x="648" y="320" font-size="7" fill="#7a6040" text-anchor="middle">profitable</text>
  <text x="648" y="336" font-size="11" fill="#8b6410" text-anchor="middle">71%</text>
  <text x="648" y="347" font-size="6" fill="#7a6040" text-anchor="middle">of films</text>

  <!-- color legend bar -->
  <text x="162" y="368" font-size="7" fill="#7a6040">LOW ROI</text>
  <defs>
    <linearGradient id="lg2" x1="0%" x2="100%">
      <stop offset="0%" stop-color="#f5f0e6"/>
      <stop offset="50%" stop-color="#c9843a" stop-opacity="0.5"/>
      <stop offset="100%" stop-color="#8b6410"/>
    </linearGradient>
  </defs>
  <rect x="210" y="362" width="220" height="8" rx="2" fill="url(#lg2)" stroke="#c8b898" stroke-width="0.5"/>
  <text x="438" y="368" font-size="7" fill="#8b6410">HIGH ROI</text>

  <text x="162" y="390" font-size="7" fill="#b8a060" letter-spacing="1">CLICK CELL TO SEE ROI DISTRIBUTION · DECADE SLIDER UPDATES ENTIRE MATRIX</text>
</svg>
